<?xml version="1.0"?>
<svg xmlns="http://www.w3.org/2000/svg" xmlns:xlink="http://www.w3.org/1999/xlink" xmlns:svgjs="http://svgjs.com/svgjs" version="1.1" width="512" height="512" x="0" y="0" viewBox="0 0 979.468 979.468" style="enable-background:new 0 0 512 512" xml:space="preserve" class=""><g>
<g xmlns="http://www.w3.org/2000/svg">
	<path d="M945.03,558.082l-378.101,377.5c-44.5,44.399-111.1,44.399-155.399,0l-377.3-377.5c-44.3-44.2-46.2-113.7-2.2-157.601   c43-42.999,115.5-38.399,157.2,3.4l184.4,184.4c0,0,0.601-465.101,0.601-465.3c0-30.801,12-60.5,34.399-81.601   c54-50.6,148.5-37.1,184.4,27.7c9.1,16.4,13.899,35.1,13.8,53.9l-0.4,465.3c0,0,184.2-184.301,184.301-184.4   c41.899-41.899,114.1-46.1,156.899-3.4C991.63,444.381,989.33,513.881,945.03,558.082z" fill="#474747" data-original="#000000" style=""/>
</g>
<g xmlns="http://www.w3.org/2000/svg">
</g>
<g xmlns="http://www.w3.org/2000/svg">
</g>
<g xmlns="http://www.w3.org/2000/svg">
</g>
<g xmlns="http://www.w3.org/2000/svg">
</g>
<g xmlns="http://www.w3.org/2000/svg">
</g>
<g xmlns="http://www.w3.org/2000/svg">
</g>
<g xmlns="http://www.w3.org/2000/svg">
</g>
<g xmlns="http://www.w3.org/2000/svg">
</g>
<g xmlns="http://www.w3.org/2000/svg">
</g>
<g xmlns="http://www.w3.org/2000/svg">
</g>
<g xmlns="http://www.w3.org/2000/svg">
</g>
<g xmlns="http://www.w3.org/2000/svg">
</g>
<g xmlns="http://www.w3.org/2000/svg">
</g>
<g xmlns="http://www.w3.org/2000/svg">
</g>
<g xmlns="http://www.w3.org/2000/svg">
</g>
</g></svg>
